<svg width="59" height="70" viewBox="0 0 59 70" fill="#FBEAE9" xmlns="http://www.w3.org/2000/svg">
<path d="M2.4259 56.7686L29.1118 10.6748L55.7976 56.7686H2.4259ZM10.7956 51.9166H47.428L29.1118 20.3788L10.7956 51.9166ZM29.1118 49.4906C29.1118 49.4906 29.2836 49.4906 29.6273 49.4906C29.971 49.4906 30.3753 49.2581 30.8403 48.7931C31.3053 48.3281 31.5377 47.752 31.5377 47.0646C31.5377 46.3772 31.3053 45.8011 30.8403 45.3361C30.3753 44.8711 29.7991 44.6386 29.1118 44.6386C28.4244 44.6386 27.8482 44.8711 27.3832 45.3361C26.9183 45.8011 26.6858 46.3772 26.6858 47.0646C26.6858 47.752 26.9183 48.3281 27.3832 48.7931C27.8482 49.2581 28.4244 49.4906 29.1118 49.4906ZM26.6858 42.2126H31.5377V30.0827H26.6858V42.2126Z" fill="#FBEAE9"/>
</svg>
