<svg width="36" height="36" viewBox="0 0 36 36" fill="none" xmlns="http://www.w3.org/2000/svg">
    <rect x="36" y="36" width="36" height="36" rx="18" transform="rotate(-180 36 36)" fill="#E5E7EB"/>
    <path d="M21.9935 25.1576C22.3841 25.5482 22.384 26.1816 21.9932 26.5721L21.8164 26.7487C21.4259 27.1388 20.7931 27.1387 20.4027 26.7485L12.4409 18.7895C12.3012 18.6506 12.1903 18.4855 12.1146 18.3037C12.039 18.1218 12 17.9267 12 17.7297C12 17.5328 12.039 17.3377 12.1146 17.1558C12.1903 16.974 12.3012 16.8089 12.4409 16.67L20.4023 8.70723C20.7928 8.31665 21.426 8.31662 21.8166 8.70717L21.9924 8.88296C22.3829 9.27346 22.3829 9.90657 21.9924 10.2971L15.2704 17.0204C14.8799 17.4109 14.88 18.044 15.2705 18.4345L21.9935 25.1576Z" fill="#111827"/>
</svg>
