<svg width="40" height="40" viewBox="0 0 40 40" fill="none" xmlns="http://www.w3.org/2000/svg">
    <rect width="40" height="40" rx="20" fill="#F5F6F7"/>
    <path d="M25.625 13.8125C25.7741 13.8125 25.917 13.8721 26.0225 13.9775C26.1279 14.083 26.1875 14.2259 26.1875 14.375C26.1875 14.4868 26.1538 14.5948 26.0928 14.6865L26.0234 14.7725L20.8398 19.9551L20.7959 20L20.8398 20.0439L26.0234 25.2266C26.1288 25.3321 26.1875 25.4759 26.1875 25.625C26.1873 25.774 26.1278 25.9171 26.0225 26.0225C25.917 26.1277 25.774 26.1865 25.625 26.1865C25.476 26.1865 25.333 26.1278 25.2275 26.0225L20 20.7949L19.9561 20.8398L14.7734 26.0225C14.7213 26.0747 14.659 26.1162 14.5908 26.1445C14.5226 26.1728 14.4489 26.1875 14.375 26.1875C14.3012 26.1875 14.2283 26.1727 14.1602 26.1445C14.0919 26.1163 14.0298 26.0747 13.9775 26.0225C13.9253 25.9702 13.8837 25.9081 13.8555 25.8398C13.8273 25.7717 13.8125 25.6988 13.8125 25.625C13.8125 25.5511 13.8272 25.4774 13.8555 25.4092C13.8838 25.341 13.9253 25.2787 13.9775 25.2266L19.1602 20.0439L19.2051 20L13.9775 14.7725C13.8722 14.667 13.8135 14.524 13.8135 14.375C13.8135 14.226 13.8723 14.083 13.9775 13.9775C14.0829 13.8722 14.226 13.8126 14.375 13.8125C14.5241 13.8125 14.6679 13.8712 14.7734 13.9766L19.9561 19.1602L20 19.2041L20.0449 19.1602L25.2275 13.9766C25.333 13.8714 25.4761 13.8125 25.625 13.8125Z" fill="#111827" stroke="#111827" stroke-width="0.125"/>
</svg>
