<svg width="18" height="28" viewBox="0 0 18 28" fill="none" xmlns="http://www.w3.org/2000/svg">
<path d="M5.82245 11.4022C5.82245 11.4022 5.874 11.4022 5.97711 11.4022C6.08021 11.4022 6.20151 11.3324 6.34101 11.1929C6.4805 11.0535 6.55025 10.8806 6.55025 10.6744C6.55025 10.4682 6.4805 10.2953 6.34101 10.1558C6.20151 10.0163 6.02866 9.9466 5.82245 9.9466C5.61624 9.9466 5.44339 10.0163 5.3039 10.1558C5.1644 10.2953 5.09466 10.4682 5.09466 10.6744C5.09466 10.8806 5.1644 11.0535 5.3039 11.1929C5.44339 11.3324 5.61624 11.4022 5.82245 11.4022ZM5.82245 14.3134C5.82245 14.3134 5.874 14.3134 5.97711 14.3134C6.08021 14.3134 6.20151 14.2436 6.34101 14.1041C6.4805 13.9646 6.55025 13.7918 6.55025 13.5856C6.55025 13.3794 6.4805 13.2065 6.34101 13.067C6.20151 12.9275 6.02866 12.8578 5.82245 12.8578C5.61624 12.8578 5.44339 12.9275 5.3039 13.067C5.1644 13.2065 5.09466 13.3794 5.09466 13.5856C5.09466 13.7918 5.1644 13.9646 5.3039 14.1041C5.44339 14.2436 5.61624 14.3134 5.82245 14.3134ZM5.82245 17.2246C5.82245 17.2246 5.874 17.2246 5.97711 17.2246C6.08021 17.2246 6.20151 17.1548 6.34101 17.0153C6.4805 16.8758 6.55025 16.703 6.55025 16.4968C6.55025 16.2906 6.4805 16.1177 6.34101 15.9782C6.20151 15.8387 6.02866 15.769 5.82245 15.769C5.61624 15.769 5.44339 15.8387 5.3039 15.9782C5.1644 16.1177 5.09466 16.2906 5.09466 16.4968C5.09466 16.703 5.1644 16.8758 5.3039 17.0153C5.44339 17.1548 5.61624 17.2246 5.82245 17.2246ZM3.63906 20.1357C3.23878 20.1357 2.89611 19.9932 2.61105 19.7082C2.326 19.4231 2.18347 19.0804 2.18347 18.6802V8.491C2.18347 8.09072 2.326 7.74805 2.61105 7.46299C2.89611 7.17794 3.23878 7.03541 3.63906 7.03541H11.6448L15.2838 10.6744V18.6802C15.2838 19.0804 15.1413 19.4231 14.8562 19.7082C14.5712 19.9932 14.2285 20.1357 13.8282 20.1357H3.63906ZM3.63906 18.6802H13.8282V11.4022H10.917V8.491H3.63906V18.6802ZM3.63906 8.491V11.4022V18.6802V8.491Z" fill="white"/>
</svg>
