<svg width="8" height="10" viewBox="0 0 8 10" fill="none" xmlns="http://www.w3.org/2000/svg">
    <path d="M6.22626 3.22662H5.3692V0.529419C5.3692 0.252136 5.11713 6.10352e-05 4.83984 6.10352e-05H2.672C2.39471 6.10352e-05 2.14264 0.252136 2.14264 0.529419V3.22662H1.28558C0.806641 3.22662 0.554565 3.8064 0.907471 4.13409L3.37781 6.60443C3.57947 6.8313 3.93237 6.8313 4.13403 6.60443L6.60437 4.13409C6.93207 3.8064 6.7052 3.22662 6.22626 3.22662ZM0 8.59583C0 8.89832 0.226868 9.15039 0.529358 9.15039H6.98248C7.28497 9.15039 7.51184 8.89832 7.51184 8.59583C7.51184 8.31854 7.28497 8.06647 6.98248 8.06647H0.529358C0.226868 8.06647 0 8.31854 0 8.59583Z" fill="white"/>
</svg>