<svg width="20" height="24" viewBox="0 0 20 24" fill="none" xmlns="http://www.w3.org/2000/svg">
    <path d="M9.16665 18.667C8.93054 18.667 8.73262 18.5871 8.5729 18.4274C8.41318 18.2677 8.33332 18.0698 8.33332 17.8337V12.8337L3.49999 6.66699C3.29165 6.38921 3.2604 6.09755 3.40624 5.79199C3.55207 5.48644 3.80554 5.33366 4.16665 5.33366H15.8333C16.1944 5.33366 16.4479 5.48644 16.5937 5.79199C16.7396 6.09755 16.7083 6.38921 16.5 6.66699L11.6667 12.8337V17.8337C11.6667 18.0698 11.5868 18.2677 11.4271 18.4274C11.2673 18.5871 11.0694 18.667 10.8333 18.667H9.16665ZM9.99999 12.2503L14.125 7.00033H5.87499L9.99999 12.2503Z" fill="white"/>
</svg>
