<svg width="59" height="70" viewBox="0 0 59 70" fill="#FCF6E3" xmlns="http://www.w3.org/2000/svg">
<path d="M0 49.4902V45.6693C0 43.9307 0.889529 42.5155 2.66859 41.4238C4.44764 40.3321 6.79276 39.7863 9.70395 39.7863C10.2296 39.7863 10.735 39.7964 11.2202 39.8166C11.7054 39.8368 12.1704 39.8874 12.6151 39.9682C12.0491 40.8173 11.6245 41.7069 11.3415 42.6368C11.0585 43.5668 10.9169 44.5372 10.9169 45.548V49.4902H0ZM14.5559 49.4902V45.548C14.5559 44.2541 14.9097 43.0715 15.6173 42C16.3249 40.9285 17.3256 39.9885 18.6194 39.1798C19.9133 38.3711 21.4599 37.7646 23.2591 37.3603C25.0584 36.956 27.0093 36.7538 29.1118 36.7538C31.2548 36.7538 33.2259 36.956 35.0252 37.3603C36.8245 37.7646 38.371 38.3711 39.6649 39.1798C40.9587 39.9885 41.9494 40.9285 42.6367 42C43.3241 43.0715 43.6678 44.2541 43.6678 45.548V49.4902H14.5559ZM47.3067 49.4902V45.548C47.3067 44.4967 47.1753 43.5061 46.9125 42.5762C46.6497 41.6462 46.2555 40.7769 45.7299 39.9682C46.1746 39.8874 46.6295 39.8368 47.0945 39.8166C47.5595 39.7964 48.0345 39.7863 48.5197 39.7863C51.4309 39.7863 53.776 40.322 55.5551 41.3935C57.3342 42.465 58.2237 43.8902 58.2237 45.6693V49.4902H47.3067ZM19.7111 44.6383H38.5732C38.1689 43.8296 37.0468 43.122 35.2071 42.5155C33.3674 41.909 31.3357 41.6058 29.1118 41.6058C26.888 41.6058 24.8563 41.909 23.0166 42.5155C21.1768 43.122 20.075 43.8296 19.7111 44.6383ZM9.70395 37.3603C8.36965 37.3603 7.22742 36.8852 6.27724 35.935C5.32706 34.9849 4.85197 33.8426 4.85197 32.5083C4.85197 31.1336 5.32706 29.9813 6.27724 29.0513C7.22742 28.1213 8.36965 27.6564 9.70395 27.6564C11.0787 27.6564 12.231 28.1213 13.161 29.0513C14.0909 29.9813 14.5559 31.1336 14.5559 32.5083C14.5559 33.8426 14.0909 34.9849 13.161 35.935C12.231 36.8852 11.0787 37.3603 9.70395 37.3603ZM48.5197 37.3603C47.1854 37.3603 46.0432 36.8852 45.093 35.935C44.1428 34.9849 43.6678 33.8426 43.6678 32.5083C43.6678 31.1336 44.1428 29.9813 45.093 29.0513C46.0432 28.1213 47.1854 27.6564 48.5197 27.6564C49.8945 27.6564 51.0468 28.1213 51.9768 29.0513C52.9067 29.9813 53.3717 31.1336 53.3717 32.5083C53.3717 33.8426 52.9067 34.9849 51.9768 35.935C51.0468 36.8852 49.8945 37.3603 48.5197 37.3603ZM29.1118 34.9343C27.0902 34.9343 25.3718 34.2267 23.9566 32.8116C22.5415 31.3964 21.8339 29.678 21.8339 27.6564C21.8339 25.5943 22.5415 23.8657 23.9566 22.4708C25.3718 21.0759 27.0902 20.3784 29.1118 20.3784C31.1739 20.3784 32.9024 21.0759 34.2974 22.4708C35.6923 23.8657 36.3898 25.5943 36.3898 27.6564C36.3898 29.678 35.6923 31.3964 34.2974 32.8116C32.9024 34.2267 31.1739 34.9343 29.1118 34.9343ZM29.1118 30.0823C29.7992 30.0823 30.3754 29.8498 30.8404 29.3849C31.3053 28.9199 31.5378 28.3437 31.5378 27.6564C31.5378 26.969 31.3053 26.3928 30.8404 25.9278C30.3754 25.4629 29.7992 25.2304 29.1118 25.2304C28.4245 25.2304 27.8483 25.4629 27.3833 25.9278C26.9183 26.3928 26.6859 26.969 26.6859 27.6564C26.6859 28.3437 26.9183 28.9199 27.3833 29.3849C27.8483 29.8498 28.4245 30.0823 29.1118 30.0823Z" fill="#FCF6D7"/>
</svg>
