<svg width="20" height="20" viewBox="0 0 20 20" fill="none" xmlns="http://www.w3.org/2000/svg">
<path d="M16.875 16.8752V9.02667C16.875 8.93959 16.8568 8.85347 16.8216 8.77383C16.7863 8.69419 16.7349 8.62279 16.6704 8.56421L10.42 2.88178C10.3049 2.77719 10.155 2.71923 9.99955 2.71924C9.84406 2.71924 9.69415 2.77721 9.57911 2.88181L3.32954 8.56422C3.26511 8.6228 3.21364 8.69419 3.17842 8.77382C3.14319 8.85345 3.125 8.93957 3.125 9.02664V16.8752" stroke="#475784" stroke-width="1.25" stroke-linecap="round" stroke-linejoin="round"/>
<path d="M1.25 16.875H18.75" stroke="#475784" stroke-width="1.25" stroke-linecap="round" stroke-linejoin="round"/>
<path d="M11.8745 16.8745V12.4995C11.8745 12.3338 11.8087 12.1748 11.6915 12.0576C11.5743 11.9404 11.4153 11.8745 11.2495 11.8745H8.74954C8.58378 11.8745 8.42481 11.9404 8.3076 12.0576C8.19039 12.1748 8.12454 12.3338 8.12454 12.4995V16.8745" stroke="#475784" stroke-width="1.25" stroke-linecap="round" stroke-linejoin="round"/>
</svg>
