<svg width="24" height="24" viewBox="0 0 24 24" fill="none" xmlns="http://www.w3.org/2000/svg">
<path d="M12.0001 21.9844C13.0782 21.9844 14.0157 21.0938 14.0157 20.0156H9.98443C9.98443 21.0938 10.8751 21.9844 12.0001 21.9844ZM18.0001 15.9844V11.0156C18.0001 7.92188 16.3594 5.34375 13.5001 4.6875V3.98438C13.5001 3.1875 12.8438 2.48438 12.0001 2.48438C11.1563 2.48438 10.5001 3.1875 10.5001 3.98438V4.6875C7.64068 5.34375 6.00005 7.92188 6.00005 11.0156V15.9844L4.68755 17.2969C4.07818 17.9062 4.50005 18.9844 5.39068 18.9844H18.5626C19.4532 18.9844 19.9219 17.9062 19.3126 17.2969L18.0001 15.9844Z" fill="#9CA3AF"/>
</svg>
