<svg width="20" height="24" viewBox="0 0 20 24" fill="none" xmlns="http://www.w3.org/2000/svg">
    <path d="M7.36797 12.1984H8.18672V10.5609H9.00547C9.23745 10.5609 9.4319 10.4825 9.58883 10.3255C9.74576 10.1686 9.82422 9.97416 9.82422 9.74219V8.92344C9.82422 8.69146 9.74576 8.497 9.58883 8.34008C9.4319 8.18315 9.23745 8.10468 9.00547 8.10468H7.36797V12.1984ZM8.18672 9.74219V8.92344H9.00547V9.74219H8.18672ZM10.643 12.1984H12.2805C12.5125 12.1984 12.7069 12.12 12.8638 11.963C13.0208 11.8061 13.0992 11.6117 13.0992 11.3797V8.92344C13.0992 8.69146 13.0208 8.497 12.8638 8.34008C12.7069 8.18315 12.5125 8.10468 12.2805 8.10468H10.643V12.1984ZM11.4617 11.3797V8.92344H12.2805V11.3797H11.4617ZM13.918 12.1984H14.7367V10.5609H15.5555V9.74219H14.7367V8.92344H15.5555V8.10468H13.918V12.1984ZM6.54922 16.7016C6.09891 16.7016 5.71341 16.5412 5.39274 16.2205C5.07206 15.8999 4.91172 15.5144 4.91172 15.0641V5.23906C4.91172 4.78875 5.07206 4.40325 5.39274 4.08257C5.71341 3.7619 6.09891 3.60156 6.54922 3.60156H16.3742C16.8245 3.60156 17.21 3.7619 17.5307 4.08257C17.8514 4.40325 18.0117 4.78875 18.0117 5.23906V15.0641C18.0117 15.5144 17.8514 15.8999 17.5307 16.2205C17.21 16.5412 16.8245 16.7016 16.3742 16.7016H6.54922ZM6.54922 15.0641H16.3742V5.23906H6.54922V15.0641ZM3.27422 19.9766C2.82391 19.9766 2.43841 19.8162 2.11773 19.4955C1.79706 19.1749 1.63672 18.7894 1.63672 18.3391V6.87656H3.27422V18.3391H14.7367V19.9766H3.27422Z" fill="white"/>
</svg>
