<svg width="59" height="70" viewBox="0 0 59 70" fill="#EAEBF1" xmlns="http://www.w3.org/2000/svg">
<path d="M16.9821 47.0646H21.8341V34.9347H16.9821V47.0646ZM36.39 47.0646H41.242V22.8047H36.39V47.0646ZM26.686 47.0646H31.538V39.7866H26.686V47.0646ZM26.686 34.9347H31.538V30.0827H26.686V34.9347ZM12.1301 56.7686C10.7958 56.7686 9.65358 56.2935 8.7034 55.3433C7.75323 54.3931 7.27814 53.2509 7.27814 51.9166V17.9528C7.27814 16.6185 7.75323 15.4762 8.7034 14.5261C9.65358 13.5759 10.7958 13.1008 12.1301 13.1008H46.0939C47.4282 13.1008 48.5705 13.5759 49.5206 14.5261C50.4708 15.4762 50.9459 16.6185 50.9459 17.9528V51.9166C50.9459 53.2509 50.4708 54.3931 49.5206 55.3433C48.5705 56.2935 47.4282 56.7686 46.0939 56.7686H12.1301ZM12.1301 51.9166H46.0939V17.9528H12.1301V51.9166Z" fill="#EAEBF1"/>
</svg>
