<svg width="20" height="16" viewBox="0 0 20 16" fill="none" xmlns="http://www.w3.org/2000/svg">
    <path fill-rule="evenodd" clip-rule="evenodd" d="M6.875 5.625C7.37228 5.625 7.84919 5.42746 8.20083 5.07583C8.55246 4.72419 8.75 4.24728 8.75 3.75C8.75 3.25272 8.55246 2.77581 8.20083 2.42417C7.84919 2.07254 7.37228 1.875 6.875 1.875C6.37772 1.875 5.90081 2.07254 5.54917 2.42417C5.19754 2.77581 5 3.25272 5 3.75C5 4.24728 5.19754 4.72419 5.54917 5.07583C5.90081 5.42746 6.37772 5.625 6.875 5.625ZM6.875 7.5C7.86956 7.5 8.82339 7.10491 9.52665 6.40165C10.2299 5.69839 10.625 4.74456 10.625 3.75C10.625 2.75544 10.2299 1.80161 9.52665 1.09835C8.82339 0.395088 7.86956 0 6.875 0C5.88044 0 4.92661 0.395088 4.22335 1.09835C3.52009 1.80161 3.125 2.75544 3.125 3.75C3.125 4.74456 3.52009 5.69839 4.22335 6.40165C4.92661 7.10491 5.88044 7.5 6.875 7.5ZM3.08875 11.1075C2.1175 11.7825 1.875 12.4363 1.875 12.74C1.875 13.2975 2.3275 13.75 2.885 13.75H10.865C11.1327 13.7493 11.3892 13.6427 11.5784 13.4534C11.7677 13.2642 11.8743 13.0077 11.875 12.74C11.875 12.435 11.6325 11.7812 10.6613 11.1075C9.74 10.4688 8.39875 10 6.875 10C5.35125 10 4.01 10.4688 3.08875 11.1075ZM0 12.74C0 10.4325 3.09375 8.125 6.875 8.125C8.35 8.125 9.7225 8.47625 10.8463 9.0425C11.9224 8.43417 13.1389 8.11787 14.375 8.125C17.4688 8.125 20 10.0475 20 11.9712C20 12.6088 19.7467 13.2202 19.296 13.671C18.8452 14.1217 18.2338 14.375 17.5962 14.375H13.2425C12.7225 15.13 11.8513 15.625 10.865 15.625H2.885C2.12005 15.6243 1.38663 15.3202 0.845728 14.7793C0.304829 14.2384 0.000662005 13.5049 0 12.74ZM13.7388 12.5H17.5962C17.8888 12.5 18.125 12.2625 18.125 11.9712C18.125 11.8425 18.005 11.3813 17.265 10.8588C16.5725 10.3675 15.5463 10 14.375 10C13.7288 10 13.1263 10.1125 12.6 10.295C13.2575 10.9625 13.6675 11.7275 13.7388 12.5ZM15.625 4.375C15.625 4.70652 15.4933 5.02446 15.2589 5.25888C15.0245 5.4933 14.7065 5.625 14.375 5.625C14.0435 5.625 13.7255 5.4933 13.4911 5.25888C13.2567 5.02446 13.125 4.70652 13.125 4.375C13.125 4.04348 13.2567 3.72554 13.4911 3.49112C13.7255 3.2567 14.0435 3.125 14.375 3.125C14.7065 3.125 15.0245 3.2567 15.2589 3.49112C15.4933 3.72554 15.625 4.04348 15.625 4.375ZM17.5 4.375C17.5 5.2038 17.1708 5.99866 16.5847 6.58471C15.9987 7.17076 15.2038 7.5 14.375 7.5C13.5462 7.5 12.7513 7.17076 12.1653 6.58471C11.5792 5.99866 11.25 5.2038 11.25 4.375C11.25 3.5462 11.5792 2.75134 12.1653 2.16529C12.7513 1.57924 13.5462 1.25 14.375 1.25C15.2038 1.25 15.9987 1.57924 16.5847 2.16529C17.1708 2.75134 17.5 3.5462 17.5 4.375Z" fill="#475784"/>
</svg>
