<svg width="256" height="64" viewBox="0 0 256 64" fill="none" xmlns="http://www.w3.org/2000/svg">
<path d="M6.3999 44.8C25.5999 44.8 38.3999 38.4 63.9999 28.8C83.1999 22.4 102.4 12.8 121.6 6.4C128 3.2 134.4 9.6 140.8 16C147.2 9.6 153.6 16 160 22.4C185.6 25.6 204.8 32 249.6 38.4V44.8H6.3999Z" fill="#475784"/>
<path d="M124.8 9.60001C131.2 16 137.6 12.8 144 22.4L134.4 19.2L124.8 9.60001Z" fill="white" fill-opacity="0.3"/>
<path d="M58.3526 54.065H56.1626C56.1226 53.7817 56.0409 53.53 55.9176 53.31C55.7942 53.0867 55.6359 52.8967 55.4426 52.74C55.2492 52.5833 55.0259 52.4633 54.7726 52.38C54.5226 52.2967 54.2509 52.255 53.9576 52.255C53.4276 52.255 52.9659 52.3867 52.5726 52.65C52.1792 52.91 51.8742 53.29 51.6576 53.79C51.4409 54.2867 51.3326 54.89 51.3326 55.6C51.3326 56.33 51.4409 56.9433 51.6576 57.44C51.8776 57.9367 52.1842 58.3117 52.5776 58.565C52.9709 58.8183 53.4259 58.945 53.9426 58.945C54.2326 58.945 54.5009 58.9067 54.7476 58.83C54.9976 58.7533 55.2192 58.6417 55.4126 58.495C55.6059 58.345 55.7659 58.1633 55.8926 57.95C56.0226 57.7367 56.1126 57.4933 56.1626 57.22L58.3526 57.23C58.2959 57.7 58.1542 58.1533 57.9276 58.59C57.7042 59.0233 57.4026 59.4117 57.0226 59.755C56.6459 60.095 56.1959 60.365 55.6726 60.565C55.1526 60.7617 54.5642 60.86 53.9076 60.86C52.9942 60.86 52.1776 60.6533 51.4576 60.24C50.7409 59.8267 50.1742 59.2283 49.7576 58.445C49.3442 57.6617 49.1376 56.7133 49.1376 55.6C49.1376 54.4833 49.3476 53.5333 49.7676 52.75C50.1876 51.9667 50.7576 51.37 51.4776 50.96C52.1976 50.5467 53.0076 50.34 53.9076 50.34C54.5009 50.34 55.0509 50.4233 55.5576 50.59C56.0676 50.7567 56.5192 51 56.9126 51.32C57.3059 51.6367 57.6259 52.025 57.8726 52.485C58.1226 52.945 58.2826 53.4717 58.3526 54.065ZM61.4776 60.72H59.1576L62.6926 50.48H65.4826L69.0126 60.72H66.6926L64.1276 52.82H64.0476L61.4776 60.72ZM61.3326 56.695H66.8126V58.385H61.3326V56.695ZM70.2451 60.72V50.48H74.2851C75.0584 50.48 75.7184 50.6183 76.2651 50.895C76.8151 51.1683 77.2334 51.5567 77.5201 52.06C77.8101 52.56 77.9551 53.1483 77.9551 53.825C77.9551 54.505 77.8084 55.09 77.5151 55.58C77.2217 56.0667 76.7967 56.44 76.2401 56.7C75.6867 56.96 75.0167 57.09 74.2301 57.09H71.5251V55.35H73.8801C74.2934 55.35 74.6367 55.2933 74.9101 55.18C75.1834 55.0667 75.3867 54.8967 75.5201 54.67C75.6567 54.4433 75.7251 54.1617 75.7251 53.825C75.7251 53.485 75.6567 53.1983 75.5201 52.965C75.3867 52.7317 75.1817 52.555 74.9051 52.435C74.6317 52.3117 74.2867 52.25 73.8701 52.25H72.4101V60.72H70.2451ZM75.7751 56.06L78.3201 60.72H75.9301L73.4401 56.06H75.7751ZM81.2501 60.72H78.9301L82.4651 50.48H85.2551L88.7851 60.72H86.4651L83.9001 52.82H83.8201L81.2501 60.72ZM81.1051 56.695H86.5851V58.385H81.1051V56.695ZM90.5888 50.48L93.0638 58.26H93.1588L95.6388 50.48H98.0388L94.5088 60.72H91.7188L88.1838 50.48H90.5888ZM99.6751 60.72H97.3551L100.89 50.48H103.68L107.21 60.72H104.89L102.325 52.82H102.245L99.6751 60.72ZM99.5301 56.695H105.01V58.385H99.5301V56.695ZM117.008 50.48V60.72H115.138L110.683 54.275H110.608V60.72H108.443V50.48H110.343L114.763 56.92H114.853V50.48H117.008ZM122.055 60.72V50.48H126.095C126.868 50.48 127.528 50.6183 128.075 50.895C128.625 51.1683 129.043 51.5567 129.33 52.06C129.62 52.56 129.765 53.1483 129.765 53.825C129.765 54.505 129.618 55.09 129.325 55.58C129.032 56.0667 128.607 56.44 128.05 56.7C127.497 56.96 126.827 57.09 126.04 57.09H123.335V55.35H125.69C126.103 55.35 126.447 55.2933 126.72 55.18C126.993 55.0667 127.197 54.8967 127.33 54.67C127.467 54.4433 127.535 54.1617 127.535 53.825C127.535 53.485 127.467 53.1983 127.33 52.965C127.197 52.7317 126.992 52.555 126.715 52.435C126.442 52.3117 126.097 52.25 125.68 52.25H124.22V60.72H122.055ZM127.585 56.06L130.13 60.72H127.74L125.25 56.06H127.585ZM131.295 60.72V50.48H138.195V52.265H133.46V54.705H137.84V56.49H133.46V58.935H138.215V60.72H131.295ZM145.471 53.425C145.431 53.0217 145.26 52.7083 144.956 52.485C144.653 52.2617 144.241 52.15 143.721 52.15C143.368 52.15 143.07 52.2 142.826 52.3C142.583 52.3967 142.396 52.5317 142.266 52.705C142.14 52.8783 142.076 53.075 142.076 53.295C142.07 53.4783 142.108 53.6383 142.191 53.775C142.278 53.9117 142.396 54.03 142.546 54.13C142.696 54.2267 142.87 54.3117 143.066 54.385C143.263 54.455 143.473 54.515 143.696 54.565L144.616 54.785C145.063 54.885 145.473 55.0183 145.846 55.185C146.22 55.3517 146.543 55.5567 146.816 55.8C147.09 56.0433 147.301 56.33 147.451 56.66C147.605 56.99 147.683 57.3683 147.686 57.795C147.683 58.4217 147.523 58.965 147.206 59.425C146.893 59.8817 146.44 60.2367 145.846 60.49C145.256 60.74 144.545 60.865 143.711 60.865C142.885 60.865 142.165 60.7383 141.551 60.485C140.941 60.2317 140.465 59.8567 140.121 59.36C139.781 58.86 139.603 58.2417 139.586 57.505H141.681C141.705 57.8483 141.803 58.135 141.976 58.365C142.153 58.5917 142.388 58.7633 142.681 58.88C142.978 58.9933 143.313 59.05 143.686 59.05C144.053 59.05 144.371 58.9967 144.641 58.89C144.915 58.7833 145.126 58.635 145.276 58.445C145.426 58.255 145.501 58.0367 145.501 57.79C145.501 57.56 145.433 57.3667 145.296 57.21C145.163 57.0533 144.966 56.92 144.706 56.81C144.45 56.7 144.135 56.6 143.761 56.51L142.646 56.23C141.783 56.02 141.101 55.6917 140.601 55.245C140.101 54.7983 139.853 54.1967 139.856 53.44C139.853 52.82 140.018 52.2783 140.351 51.815C140.688 51.3517 141.15 50.99 141.736 50.73C142.323 50.47 142.99 50.34 143.736 50.34C144.496 50.34 145.16 50.47 145.726 50.73C146.296 50.99 146.74 51.3517 147.056 51.815C147.373 52.2783 147.536 52.815 147.546 53.425H145.471ZM158.553 55.6C158.553 56.7167 158.341 57.6667 157.918 58.45C157.498 59.2333 156.924 59.8317 156.198 60.245C155.474 60.655 154.661 60.86 153.758 60.86C152.848 60.86 152.031 60.6533 151.308 60.24C150.584 59.8267 150.013 59.2283 149.593 58.445C149.173 57.6617 148.963 56.7133 148.963 55.6C148.963 54.4833 149.173 53.5333 149.593 52.75C150.013 51.9667 150.584 51.37 151.308 50.96C152.031 50.5467 152.848 50.34 153.758 50.34C154.661 50.34 155.474 50.5467 156.198 50.96C156.924 51.37 157.498 51.9667 157.918 52.75C158.341 53.5333 158.553 54.4833 158.553 55.6ZM156.358 55.6C156.358 54.8767 156.249 54.2667 156.033 53.77C155.819 53.2733 155.518 52.8967 155.128 52.64C154.738 52.3833 154.281 52.255 153.758 52.255C153.234 52.255 152.778 52.3833 152.388 52.64C151.998 52.8967 151.694 53.2733 151.478 53.77C151.264 54.2667 151.158 54.8767 151.158 55.6C151.158 56.3233 151.264 56.9333 151.478 57.43C151.694 57.9267 151.998 58.3033 152.388 58.56C152.778 58.8167 153.234 58.945 153.758 58.945C154.281 58.945 154.738 58.8167 155.128 58.56C155.518 58.3033 155.819 57.9267 156.033 57.43C156.249 56.9333 156.358 56.3233 156.358 55.6ZM166.481 50.48H168.646V57.13C168.646 57.8767 168.468 58.53 168.111 59.09C167.758 59.65 167.263 60.0867 166.626 60.4C165.99 60.71 165.248 60.865 164.401 60.865C163.551 60.865 162.808 60.71 162.171 60.4C161.535 60.0867 161.04 59.65 160.686 59.09C160.333 58.53 160.156 57.8767 160.156 57.13V50.48H162.321V56.945C162.321 57.335 162.406 57.6817 162.576 57.985C162.75 58.2883 162.993 58.5267 163.306 58.7C163.62 58.8733 163.985 58.96 164.401 58.96C164.821 58.96 165.186 58.8733 165.496 58.7C165.81 58.5267 166.051 58.2883 166.221 57.985C166.395 57.6817 166.481 57.335 166.481 56.945V50.48ZM170.428 60.72V50.48H174.468C175.241 50.48 175.901 50.6183 176.448 50.895C176.998 51.1683 177.416 51.5567 177.703 52.06C177.993 52.56 178.138 53.1483 178.138 53.825C178.138 54.505 177.991 55.09 177.698 55.58C177.404 56.0667 176.979 56.44 176.423 56.7C175.869 56.96 175.199 57.09 174.413 57.09H171.708V55.35H174.063C174.476 55.35 174.819 55.2933 175.093 55.18C175.366 55.0667 175.569 54.8967 175.703 54.67C175.839 54.4433 175.908 54.1617 175.908 53.825C175.908 53.485 175.839 53.1983 175.703 52.965C175.569 52.7317 175.364 52.555 175.088 52.435C174.814 52.3117 174.469 52.25 174.053 52.25H172.593V60.72H170.428ZM175.958 56.06L178.503 60.72H176.113L173.623 56.06H175.958ZM188.703 54.065H186.513C186.473 53.7817 186.391 53.53 186.268 53.31C186.144 53.0867 185.986 52.8967 185.793 52.74C185.599 52.5833 185.376 52.4633 185.123 52.38C184.873 52.2967 184.601 52.255 184.308 52.255C183.778 52.255 183.316 52.3867 182.923 52.65C182.529 52.91 182.224 53.29 182.008 53.79C181.791 54.2867 181.683 54.89 181.683 55.6C181.683 56.33 181.791 56.9433 182.008 57.44C182.228 57.9367 182.534 58.3117 182.928 58.565C183.321 58.8183 183.776 58.945 184.293 58.945C184.583 58.945 184.851 58.9067 185.098 58.83C185.348 58.7533 185.569 58.6417 185.763 58.495C185.956 58.345 186.116 58.1633 186.243 57.95C186.373 57.7367 186.463 57.4933 186.513 57.22L188.703 57.23C188.646 57.7 188.504 58.1533 188.278 58.59C188.054 59.0233 187.753 59.4117 187.373 59.755C186.996 60.095 186.546 60.365 186.023 60.565C185.503 60.7617 184.914 60.86 184.258 60.86C183.344 60.86 182.528 60.6533 181.808 60.24C181.091 59.8267 180.524 59.2283 180.108 58.445C179.694 57.6617 179.488 56.7133 179.488 55.6C179.488 54.4833 179.698 53.5333 180.118 52.75C180.538 51.9667 181.108 51.37 181.828 50.96C182.548 50.5467 183.358 50.34 184.258 50.34C184.851 50.34 185.401 50.4233 185.908 50.59C186.418 50.7567 186.869 51 187.263 51.32C187.656 51.6367 187.976 52.025 188.223 52.485C188.473 52.945 188.633 53.4717 188.703 54.065ZM190.255 60.72V50.48H197.155V52.265H192.42V54.705H196.8V56.49H192.42V58.935H197.175V60.72H190.255ZM204.431 53.425C204.391 53.0217 204.22 52.7083 203.916 52.485C203.613 52.2617 203.201 52.15 202.681 52.15C202.328 52.15 202.03 52.2 201.786 52.3C201.543 52.3967 201.356 52.5317 201.226 52.705C201.1 52.8783 201.036 53.075 201.036 53.295C201.03 53.4783 201.068 53.6383 201.151 53.775C201.238 53.9117 201.356 54.03 201.506 54.13C201.656 54.2267 201.83 54.3117 202.026 54.385C202.223 54.455 202.433 54.515 202.656 54.565L203.576 54.785C204.023 54.885 204.433 55.0183 204.806 55.185C205.18 55.3517 205.503 55.5567 205.776 55.8C206.05 56.0433 206.261 56.33 206.411 56.66C206.565 56.99 206.643 57.3683 206.646 57.795C206.643 58.4217 206.483 58.965 206.166 59.425C205.853 59.8817 205.4 60.2367 204.806 60.49C204.216 60.74 203.505 60.865 202.671 60.865C201.845 60.865 201.125 60.7383 200.511 60.485C199.901 60.2317 199.425 59.8567 199.081 59.36C198.741 58.86 198.563 58.2417 198.546 57.505H200.641C200.665 57.8483 200.763 58.135 200.936 58.365C201.113 58.5917 201.348 58.7633 201.641 58.88C201.938 58.9933 202.273 59.05 202.646 59.05C203.013 59.05 203.331 58.9967 203.601 58.89C203.875 58.7833 204.086 58.635 204.236 58.445C204.386 58.255 204.461 58.0367 204.461 57.79C204.461 57.56 204.393 57.3667 204.256 57.21C204.123 57.0533 203.926 56.92 203.666 56.81C203.41 56.7 203.095 56.6 202.721 56.51L201.606 56.23C200.743 56.02 200.061 55.6917 199.561 55.245C199.061 54.7983 198.813 54.1967 198.816 53.44C198.813 52.82 198.978 52.2783 199.311 51.815C199.648 51.3517 200.11 50.99 200.696 50.73C201.283 50.47 201.95 50.34 202.696 50.34C203.456 50.34 204.12 50.47 204.686 50.73C205.256 50.99 205.7 51.3517 206.016 51.815C206.333 52.2783 206.496 52.815 206.506 53.425H204.431Z" fill="#475784"/>
</svg>
