<svg width="338" height="97" viewBox="0 0 338 97" fill="none" xmlns="http://www.w3.org/2000/svg">
<path d="M287.686 42.1951C295.654 42.1951 303.766 42.3406 304.055 41.7101C305.649 38.3151 291.453 38.3151 290.439 37.6361C288.218 36.1811 281.651 35.1141 274.021 34.2411C266.392 33.3196 255.625 31.2826 251.617 28.5666C247.657 25.8506 234.62 23.4741 227.764 23.1346C220.907 22.7951 213.664 21.0976 207.339 19.1576C201.062 17.2176 198.599 19.2546 198.068 21.0976C197.537 22.8921 203.38 28.8091 203.38 28.8091C203.38 28.8091 201.4 29.2456 199.275 28.5666C197.199 27.8876 190.439 24.3956 190.439 24.3956C190.439 24.3956 187.783 24.1531 184.693 23.7166C181.603 23.2801 176.967 17.7026 175.953 17.1691C174.939 16.5871 173.104 24.5411 173.104 24.5411C173.104 24.5411 171.897 21.9221 171.801 19.7881C171.704 17.6541 175.326 13.6771 175.326 13.6771C175.326 13.6771 169.821 13.9196 167.262 12.6586C164.703 11.3976 163.495 4.51059 162.723 3.00709C161.95 1.55209 159.971 1.74609 153.452 6.74159C146.933 11.7371 136.262 16.0536 127.619 17.7511C119.024 19.4486 108.401 22.6011 91.2118 26.2386C74.0221 29.8761 59.6329 28.8576 59.6329 28.8576C59.6329 28.8576 59.8743 28.9546 64.7029 31.5736C69.5798 34.1926 83.5826 35.8901 83.5826 35.8901C83.5826 35.8901 81.6029 37.0056 76.6295 36.8116C71.6561 36.6176 63.8338 33.8531 58.8604 31.7191C53.8869 29.5851 50.6035 29.6821 48.9135 31.0401C47.2235 32.3981 50.7966 35.0171 50.4586 36.2296C50.2655 37.3451 44.7126 35.6961 42.4915 36.3751C40.2704 37.0541 32.4481 40.6431 34.9589 41.8071C37.5181 42.9226 47.1269 40.9341 53.3075 38.5576C57.2186 37.0541 61.0815 38.6061 63.6889 40.2551C65.1858 41.1766 69.7729 42.1466 72.5735 42.1466C77.0641 42.0981 82.7618 42.3406 87.5904 41.9526C89.9564 41.7586 92.1292 41.3706 94.0124 41.0311C102.269 39.4306 107.049 38.3151 107.146 36.8601C107.243 35.4051 109.56 34.2411 109.56 34.2411L111.54 39.0911C111.54 39.0911 114.099 37.8301 114.099 36.7146C114.099 35.5991 119.845 36.4721 120.956 36.4721C122.066 36.4721 125.35 34.4351 124.819 31.6221C124.287 28.8091 128.585 27.1116 129.696 27.7906C130.806 28.4696 136.407 32.4466 136.407 32.4466C136.407 32.4466 132.641 32.4466 131.868 32.1071C131.096 31.7676 126.895 31.4281 127.233 34.2411C127.571 37.0541 131.53 35.5021 132.979 35.5021C134.427 35.5021 134.09 36.1811 136.504 37.1026C138.918 38.0241 143.988 34.4836 145.099 34.4836C146.209 34.4836 148.285 38.4606 149.831 39.5761C151.376 40.6916 154.369 40.0126 155.142 38.5576C155.915 37.1026 151.376 34.2411 151.617 32.8831C151.859 31.5251 157.894 34.8231 158.908 34.5806C159.922 34.3381 157.363 28.5666 158.812 27.8876C160.26 27.2086 163.013 35.3566 167.213 37.0541C171.414 38.7516 188.604 37.8301 188.604 37.8301C188.604 37.8301 190.584 39.7701 196.764 40.7886C202.945 41.8071 211.878 38.1696 220.279 37.8301C228.681 37.4906 239.256 40.5461 239.256 40.5461C239.256 40.5461 233.51 38.0726 232.303 36.3751C231.096 34.6776 223.563 31.5251 223.563 31.5251C223.563 31.5251 227.86 30.8461 230.951 31.2826C234.041 31.7191 236.793 32.6406 239.449 32.3981C242.105 32.1556 242.105 33.5136 243.843 33.9986C245.63 34.4351 244.857 33.6591 248.382 33.9016C251.907 34.1441 260.936 36.9571 271.414 41.1766C274.746 42.4376 281.94 42.1951 287.686 42.1951Z" fill="#475784"/>
<path d="M179.526 9.99111C178.753 7.85711 178.657 7.76011 178.657 7.76011C178.657 7.76011 182.858 9.45761 183.437 10.8156C184.065 12.1736 184.065 16.1991 185.9 17.5086C187.783 18.8181 189.666 18.5756 190.873 20.1276C192.08 21.6796 192.322 22.4071 192.322 22.4071C192.322 22.4071 195.315 15.4231 190.777 11.9796C186.238 8.53611 181.071 7.27511 179.188 6.49911C177.305 5.72311 174.794 5.14111 174.794 5.14111C174.794 6.01411 176.629 10.3306 177.401 11.1551C178.126 11.9311 180.299 12.1736 179.526 9.99111Z" fill="#475784"/>
<path d="M26.219 79.8795C27.233 79.8795 28.1021 80.025 28.8264 80.3645C29.5507 80.704 30.3716 81.2375 31.1924 82.062L33.0756 79.9765C31.2407 77.9395 28.9713 76.9695 26.2673 76.9695C23.5633 76.9695 21.2938 77.8425 19.5073 79.5885C17.7207 81.3345 16.8516 83.517 16.8516 86.136C16.8516 88.755 17.7207 90.9375 19.459 92.635C21.1973 94.3325 23.4184 95.2055 26.0741 95.2055C28.7298 95.2055 30.9993 94.187 32.8341 92.1015L30.951 90.1615C30.1301 90.9375 29.3576 91.471 28.6333 91.8105C27.909 92.15 27.0398 92.344 25.9776 92.344C24.3358 92.344 22.9356 91.762 21.7284 90.5495C20.5213 89.337 19.9418 87.8335 19.9418 86.0875C19.9418 84.293 20.5213 82.838 21.7284 81.674C22.9838 80.4615 24.4807 79.8795 26.219 79.8795Z" fill="#475784"/>
<path d="M42.443 77.3577L34.7173 94.9632H37.8559L39.5941 90.9377H48.3821L50.1204 94.9632H53.259L45.5333 77.3577H42.443ZM40.8496 88.2217L44.0364 80.9467L47.2233 88.2217H40.8496Z" fill="#475784"/>
<path d="M70.4487 83.0807C70.4487 81.0922 69.8693 79.6372 68.7104 78.7157C67.5516 77.7942 65.6201 77.3577 62.9644 77.3577H56.4941V94.9632H59.4396V89.0462H63.3024L67.5033 94.9632H71.2696L66.6824 88.5612C69.1933 87.8337 70.4487 85.9907 70.4487 83.0807ZM63.1093 86.3787H59.4396V80.0737H63.2059C64.7993 80.0737 65.9099 80.2677 66.5376 80.7042C67.1653 81.1407 67.455 81.9167 67.455 83.0807C67.455 84.2447 67.1653 85.0692 66.5376 85.6027C65.9099 86.0877 64.7993 86.3787 63.1093 86.3787Z" fill="#475784"/>
<path d="M80.7335 77.3577L73.0078 94.9632H76.1464L77.8847 90.9377H86.6727L88.411 94.9632H91.5495L83.8238 77.3577H80.7335ZM79.0918 88.2217L82.2787 80.9467L85.4655 88.2217H79.0918Z" fill="#475784"/>
<path d="M105.456 77.3577L100.048 90.5497L94.6882 77.3577H91.3564L98.4062 94.9632H101.738L108.788 77.3577H105.456Z" fill="#475784"/>
<path d="M116.272 77.3577L108.546 94.9632H111.684L113.423 90.9377H122.211L123.949 94.9632H127.088L119.362 77.3577H116.272ZM114.678 88.2217L117.865 80.9467L121.052 88.2217H114.678Z" fill="#475784"/>
<path d="M143.409 90.5497L133.22 77.3577H130.275V94.9632H133.22V82.1592L143.167 94.9632H146.354V77.3577H143.409V90.5497Z" fill="#475784"/>
<path d="M173.491 83.0807C173.491 81.0922 172.911 79.6372 171.752 78.7157C170.594 77.7942 168.662 77.3577 166.006 77.3577H159.488V94.9632H162.433V89.0462H166.296L170.497 94.9632H174.263L169.676 88.5612C172.235 87.8337 173.491 85.9907 173.491 83.0807ZM166.151 86.3787H162.482V80.0737H166.248C167.841 80.0737 168.952 80.2677 169.58 80.7042C170.207 81.1407 170.497 81.9167 170.497 83.0807C170.497 84.2447 170.207 85.0692 169.58 85.6027C168.952 86.0877 167.841 86.3787 166.151 86.3787Z" fill="#475784"/>
<path d="M181.409 87.4942H189.811V84.8267H181.409V80.1707H190.777V77.3577H178.464V94.9632H191.066V92.1987H181.409V87.4942Z" fill="#475784"/>
<path d="M202.269 84.681C200.482 84.2445 199.275 83.8565 198.744 83.4685C198.213 83.0805 197.923 82.547 197.923 81.8195C197.923 81.092 198.213 80.5585 198.744 80.219C199.275 79.8795 199.999 79.6855 200.868 79.6855C201.738 79.6855 202.607 79.831 203.476 80.122C204.345 80.413 205.069 80.801 205.6 81.286L207.194 79.055C206.373 78.376 205.456 77.8425 204.345 77.503C203.234 77.115 202.124 76.9695 201.013 76.9695C199.275 76.9695 197.826 77.406 196.619 78.279C195.46 79.152 194.833 80.413 194.833 82.062C194.833 83.711 195.364 84.875 196.378 85.6995C196.909 86.136 197.488 86.4755 198.164 86.718C198.84 86.9605 199.806 87.2515 201.11 87.591C202.414 87.882 203.283 88.27 203.814 88.6095C204.345 88.9975 204.586 89.531 204.586 90.21C204.586 90.889 204.297 91.4225 203.766 91.859C203.186 92.247 202.462 92.4895 201.496 92.4895C199.613 92.4895 197.73 91.7135 195.992 90.1615L194.157 92.3925C196.281 94.284 198.696 95.254 201.448 95.254C203.331 95.254 204.828 94.769 205.987 93.799C207.146 92.829 207.725 91.6165 207.725 90.0645C207.725 88.5125 207.29 87.3485 206.373 86.5725C205.456 85.7965 204.055 85.1175 202.269 84.681Z" fill="#475784"/>
<path d="M220.134 76.9695C217.527 76.9695 215.354 77.8425 213.567 79.5885C211.781 81.3345 210.912 83.4685 210.912 86.0875C210.912 88.658 211.781 90.8405 213.567 92.5865C215.354 94.3325 217.527 95.2055 220.134 95.2055C222.742 95.2055 224.914 94.3325 226.701 92.5865C228.488 90.8405 229.357 88.7065 229.357 86.0875C229.357 83.517 228.488 81.3345 226.701 79.5885C224.963 77.8425 222.742 76.9695 220.134 76.9695ZM224.528 90.598C223.321 91.859 221.872 92.441 220.134 92.441C218.396 92.441 216.947 91.8105 215.74 90.598C214.533 89.337 213.954 87.8335 213.954 86.0875C213.954 84.293 214.533 82.7895 215.74 81.577C216.947 80.316 218.396 79.734 220.134 79.734C221.872 79.734 223.321 80.3645 224.528 81.577C225.735 82.838 226.315 84.3415 226.315 86.0875C226.363 87.8335 225.735 89.337 224.528 90.598Z" fill="#475784"/>
<path d="M245.484 87.1062C245.484 88.7067 245.098 90.0162 244.277 90.9377C243.456 91.8592 242.394 92.3442 241.042 92.3442C239.69 92.3442 238.579 91.8592 237.807 90.9377C236.986 90.0162 236.6 88.7067 236.6 87.1062V77.3577H233.654V87.2517C233.654 89.7737 234.33 91.7622 235.731 93.1202C237.131 94.4782 238.917 95.1572 241.09 95.1572C243.263 95.1572 245.05 94.4782 246.45 93.1202C247.85 91.7622 248.526 89.8222 248.526 87.2517V77.3577H245.581V87.1062H245.484Z" fill="#475784"/>
<path d="M267.744 83.0807C267.744 81.0922 267.165 79.6372 266.006 78.7157C264.847 77.7942 262.915 77.3577 260.26 77.3577H253.741V94.9632H256.687V89.0462H260.549L264.75 94.9632H268.517L263.929 88.5612C266.489 87.8337 267.744 85.9907 267.744 83.0807ZM260.405 86.3787H256.735V80.0737H260.501C262.095 80.0737 263.205 80.2677 263.833 80.7042C264.461 81.1407 264.75 81.9167 264.75 83.0807C264.75 84.2447 264.461 85.0692 263.833 85.6027C263.205 86.0877 262.095 86.3787 260.405 86.3787Z" fill="#475784"/>
<path d="M280.926 79.8795C281.94 79.8795 282.809 80.025 283.533 80.3645C284.258 80.704 285.079 81.2375 285.899 82.062L287.783 79.9765C285.948 77.9395 283.678 76.9695 280.974 76.9695C278.27 76.9695 276.001 77.8425 274.214 79.5885C272.428 81.3345 271.559 83.517 271.559 86.136C271.559 88.755 272.428 90.9375 274.166 92.635C275.904 94.3325 278.125 95.2055 280.781 95.2055C283.437 95.2055 285.706 94.187 287.541 92.1015L285.658 90.1615C284.837 90.9375 284.065 91.471 283.34 91.8105C282.616 92.15 281.747 92.344 280.685 92.344C279.043 92.344 277.643 91.762 276.435 90.5495C275.228 89.337 274.649 87.8335 274.649 86.0875C274.649 84.293 275.228 82.838 276.435 81.674C277.691 80.4615 279.188 79.8795 280.926 79.8795Z" fill="#475784"/>
<path d="M294.833 87.4942H303.234V84.8267H294.833V80.1707H304.2V77.3577H291.887V94.9632H304.2V92.1987H294.833V87.4942Z" fill="#475784"/>
<path d="M319.748 86.524C318.831 85.748 317.479 85.1175 315.692 84.681C313.906 84.2445 312.698 83.8565 312.167 83.4685C311.636 83.0805 311.346 82.547 311.346 81.8195C311.346 81.092 311.636 80.5585 312.167 80.219C312.698 79.8795 313.423 79.6855 314.292 79.6855C315.161 79.6855 316.03 79.831 316.899 80.122C317.768 80.413 318.493 80.801 319.024 81.286L320.617 79.055C319.796 78.376 318.879 77.8425 317.768 77.503C316.658 77.115 315.547 76.9695 314.437 76.9695C312.698 76.9695 311.25 77.406 310.043 78.279C308.884 79.152 308.256 80.413 308.256 82.062C308.256 83.711 308.787 84.875 309.801 85.6995C310.332 86.136 310.912 86.4755 311.588 86.718C312.264 86.9605 313.23 87.2515 314.533 87.591C315.837 87.882 316.706 88.27 317.237 88.6095C317.768 88.9975 318.01 89.531 318.01 90.21C318.01 90.889 317.72 91.4225 317.189 91.859C316.61 92.247 315.885 92.4895 314.92 92.4895C313.036 92.4895 311.153 91.7135 309.415 90.1615L307.58 92.3925C309.705 94.284 312.119 95.254 314.871 95.254C316.754 95.254 318.251 94.769 319.41 93.799C320.569 92.829 321.148 91.6165 321.148 90.0645C321.1 88.464 320.666 87.3 319.748 86.524Z" fill="#475784"/>
</svg>
